<?xml version="1.0" encoding="UTF-8"?>
<svg width="17px" height="92px" viewBox="0 0 17 92" version="1.1" xmlns="http://www.w3.org/2000/svg" xmlns:xlink="http://www.w3.org/1999/xlink">
    <title>Path 2</title>
    <g id="Page-1" stroke="none" stroke-width="1" fill="none" fill-rule="evenodd">
        <g id="Desktop" transform="translate(-512.000000, -667.000000)" fill="#A62722">
            <path d="M512,667.524507 C512.647204,669.174105 514.053752,670.473725 516.219645,671.423367 C519.468485,672.847829 519.383491,674.941828 520.290914,677.016741 C521.198337,679.091654 519.289198,686.383027 519.289198,688.402187 C519.289198,690.421347 519.865885,711.443961 520.290914,716.727391 C520.715943,722.010821 521.005933,722.902288 521.005933,727.629239 C521.005933,729.445565 520.767593,732.412729 520.290914,736.530731 C519.210437,742.709427 518.265144,747.53666 517.455033,751.012428 C516.239867,756.22608 518.576839,758.524507 521.931388,758.524507 C525.285937,758.524507 527.133843,754.457058 524.82109,748.817729 C522.508336,743.1784 521.931388,730.884491 521.931388,728.3878 C521.931388,725.891109 521.820057,717.520462 522.998131,711.333603 C524.176205,705.146744 523.678675,687.121036 523.678675,685.896288 C523.678675,684.671539 522.966434,678.485761 523.678675,677.751251 C524.390915,677.016741 524.390915,674.753683 524.82109,674.309942 C525.251264,673.866201 524.82109,672.259714 526.263256,670.973894 C527.0942,670.233032 527.969795,669.083237 528.890039,667.524507 L512,667.524507 Z" id="Path-2"></path>
        </g>
    </g>
</svg>